<?xml version="1.0" standalone="no"?>
<!DOCTYPE svg PUBLIC "-//W3C//DTD SVG 20010904//EN"
 "http://www.w3.org/TR/2001/REC-SVG-20010904/DTD/svg10.dtd">
<svg version="1.0" xmlns="http://www.w3.org/2000/svg"
 width="512.000000pt" height="512.000000pt" viewBox="0 0 512.000000 512.000000"
 preserveAspectRatio="xMidYMid meet">
<metadata>
Created by potrace 1.14, written by Peter Selinger 2001-2017
</metadata>
<g transform="translate(0.000000,512.000000) scale(0.100000,-0.100000)"
fill="#000000" stroke="none">
<path d="M1890 4182 c0 -5 -23 -14 -52 -22 -116 -29 -246 -119 -328 -226 -45
-58 -57 -63 -95 -38 -19 13 -54 15 -213 12 l-190 -3 -39 -31 c-41 -33 -74 -89
-83 -143 l-5 -35 -85 0 -84 -1 -8 43 c-11 63 -37 102 -93 140 l-49 33 -186 -3
c-180 -3 -188 -4 -224 -28 -20 -14 -50 -46 -66 -73 l-30 -47 0 -340 c0 -187 4
-348 9 -358 5 -9 17 -46 26 -82 24 -97 86 -201 171 -288 41 -41 74 -78 74 -81
0 -3 -31 -39 -69 -78 -84 -88 -142 -182 -171 -283 -12 -41 -26 -83 -31 -92
-12 -23 -12 -163 0 -186 5 -9 17 -48 26 -87 23 -93 84 -208 146 -278 222 -250
594 -303 877 -127 l46 29 29 -60 c25 -53 35 -63 87 -89 68 -34 69 -37 73 -160
4 -124 45 -189 144 -229 35 -14 137 -10 216 8 129 29 298 134 375 232 56 71
112 176 128 239 l11 45 78 3 c77 3 81 2 179 -47 149 -75 265 -94 416 -71 77
12 98 20 211 75 l85 43 265 4 c246 5 271 7 364 32 129 34 242 36 390 5 243
-49 467 14 636 181 85 84 138 170 169 275 11 39 25 78 30 87 12 21 13 258 2
258 -5 0 -14 23 -21 52 -33 125 -149 288 -264 369 -91 64 -196 103 -359 134
-73 14 -181 35 -241 47 l-107 21 37 23 c40 23 77 67 93 109 5 14 10 88 11 165
1 128 -1 144 -22 187 -29 56 -82 101 -135 114 -22 4 -328 9 -680 9 -501 0
-644 3 -652 13 -5 6 -17 46 -26 87 -50 221 -241 424 -456 485 -36 10 -69 22
-75 27 -12 10 -265 11 -265 0z m291 -232 c142 -44 250 -158 299 -316 24 -78
26 -149 5 -227 -52 -199 -198 -333 -389 -357 -134 -17 -237 10 -349 91 l-40
29 -182 0 c-197 0 -205 -2 -205 -55 -1 -162 -148 -347 -318 -401 -74 -23 -263
-29 -350 -10 -126 26 -255 122 -314 232 -49 92 -56 144 -60 464 l-3 295 110 0
110 0 7 -290 c7 -317 9 -332 70 -400 51 -59 99 -78 208 -83 54 -2 113 1 137 7
62 17 124 68 153 126 25 49 25 54 28 340 2 159 7 294 12 300 10 12 191 12 210
0 10 -6 11 -38 6 -135 -5 -79 -4 -130 2 -134 18 -11 217 -15 230 -4 8 7 12 38
12 88 0 321 300 537 611 440z m-1286 -487 c36 -27 55 -67 55 -115 0 -172 -245
-188 -275 -18 -8 48 28 117 75 142 41 23 108 18 145 -9z m3065 -49 c11 -12 10
-18 -3 -31 -8 -9 -23 -13 -31 -10 -19 8 -21 43 -3 50 20 9 24 8 37 -9z m-1150
-54 c8 0 31 2 51 6 29 5 41 1 64 -19 26 -22 29 -30 29 -98 1 -69 0 -74 -21
-77 -22 -3 -23 0 -23 60 0 66 -10 88 -42 88 -25 0 -38 -31 -38 -94 0 -53 -1
-56 -25 -56 -23 0 -24 3 -27 66 -2 49 -7 70 -20 77 -31 20 -48 -8 -48 -79 0
-62 -1 -64 -25 -64 l-25 0 0 101 0 101 68 -6 c37 -3 74 -6 82 -6z m250 -53 c0
-79 20 -106 54 -71 11 10 16 34 16 75 0 56 1 59 25 59 l25 0 0 -117 c0 -106
-2 -119 -22 -140 -30 -32 -90 -32 -123 2 -14 13 -25 29 -25 35 0 16 47 12 54
-5 7 -18 37 -20 54 -3 20 20 14 25 -30 31 -63 8 -78 33 -78 123 0 72 1 74 25
74 24 0 25 -2 25 -63z m438 51 c10 -10 17 -10 32 0 32 20 78 15 105 -13 22
-21 25 -33 25 -100 0 -73 -1 -76 -22 -73 -20 3 -23 9 -25 53 -1 28 -2 58 -2
67 -1 22 -38 33 -56 18 -10 -9 -15 -33 -15 -76 0 -62 -1 -64 -25 -64 -24 0
-25 2 -25 63 0 81 -26 110 -64 71 -11 -11 -16 -34 -16 -75 0 -57 -1 -60 -22
-57 -22 3 -23 8 -26 101 l-3 97 64 0 c36 0 68 -5 75 -12z m346 -9 c41 -32 33
-42 -28 -35 -51 7 -56 6 -71 -18 -29 -43 18 -91 64 -67 11 6 31 11 46 11 23 0
25 -2 15 -21 -18 -33 -75 -52 -116 -39 -44 15 -64 45 -64 96 0 35 5 47 31 68
38 32 86 34 123 5z m121 -84 l0 -90 -27 -3 -28 -3 0 96 0 96 28 -3 27 -3 0
-90z m-2347 -387 c9 -9 12 -159 12 -612 0 -581 -1 -601 -20 -640 -29 -59 -63
-80 -139 -84 -54 -4 -67 -2 -78 14 -18 25 -19 1304 -1 1322 8 8 48 12 113 12
65 0 105 -4 113 -12z m2358 -113 c266 -53 511 -104 544 -114 169 -53 292 -198
321 -379 35 -216 -97 -436 -309 -515 -82 -30 -219 -28 -381 6 -148 32 -167 33
-251 7 -139 -43 -219 -51 -502 -53 l-273 -2 -60 -42 c-182 -126 -377 -123
-564 11 l-43 31 -176 3 c-97 2 -191 1 -208 -3 -31 -5 -32 -6 -39 -83 -14 -149
-63 -254 -158 -336 -69 -61 -134 -94 -216 -111 -99 -21 -101 -20 -101 84 0
123 2 125 73 151 74 27 137 86 155 147 8 28 12 139 12 367 0 207 4 334 10 347
10 17 22 19 115 19 125 0 114 17 118 -190 l2 -145 135 0 135 0 6 100 c7 110
27 174 79 255 80 125 241 210 398 210 159 0 335 -107 411 -250 36 -67 63 -188
59 -264 l-3 -51 139 -3 138 -3 -36 50 c-116 158 -132 334 -46 506 22 44 40 83
40 87 0 4 -16 10 -35 14 -41 7 -41 7 -16 130 17 89 26 114 38 114 3 0 224 -43
489 -95z m-3113 -300 c83 -22 134 -50 192 -109 163 -164 164 -435 2 -600 -178
-180 -495 -160 -641 42 -128 174 -108 424 44 566 107 100 260 138 403 101z"/>
<path d="M1935 3721 c-144 -67 -180 -266 -67 -376 50 -48 107 -68 180 -63 73
5 128 33 169 87 45 59 58 112 44 180 -15 74 -51 125 -114 161 -63 36 -148 41
-212 11z"/>
<path d="M3800 2514 c-59 -26 -101 -65 -126 -118 -43 -93 -25 -185 51 -259 96
-94 247 -76 325 38 67 98 55 209 -32 292 -62 60 -146 78 -218 47z"/>
<path d="M4336 2348 c8 -108 -7 -182 -56 -277 -16 -33 -30 -62 -30 -65 0 -11
69 -26 119 -26 165 1 276 164 210 310 -31 70 -74 108 -147 130 -106 33 -103
35 -96 -72z"/>
<path d="M2705 2266 c-109 -48 -160 -165 -124 -287 45 -149 248 -200 362 -91
66 62 89 164 59 253 -15 45 -67 100 -115 122 -42 20 -139 22 -182 3z"/>
<path d="M663 2265 c-115 -50 -166 -196 -108 -312 52 -103 178 -151 283 -107
228 95 162 435 -85 434 -32 -1 -72 -7 -90 -15z"/>
</g>
</svg>
